<svg width="582" height="210" viewBox="0 0 582 210" fill="none" xmlns="http://www.w3.org/2000/svg">
<path d="M187.543 163.664H154.711V206H109.207V163.664H0.631125V132.272L95.6711 4.39999H144.631L56.5031 125.648H110.647V87.92H154.711V125.648H187.543V163.664ZM287.898 209.456C271.194 209.456 256.314 205.328 243.258 197.072C230.202 188.816 219.93 176.912 212.442 161.36C205.146 145.616 201.498 126.896 201.498 105.2C201.498 83.504 205.146 64.88 212.442 49.328C219.93 33.584 230.202 21.584 243.258 13.328C256.314 5.07199 271.194 0.943996 287.898 0.943996C304.602 0.943996 319.482 5.07199 332.538 13.328C345.594 21.584 355.77 33.584 363.066 49.328C370.554 64.88 374.298 83.504 374.298 105.2C374.298 126.896 370.554 145.616 363.066 161.36C355.77 176.912 345.594 188.816 332.538 197.072C319.482 205.328 304.602 209.456 287.898 209.456ZM287.898 170C300.186 170 309.786 164.72 316.698 154.16C323.802 143.6 327.354 127.28 327.354 105.2C327.354 83.12 323.802 66.8 316.698 56.24C309.786 45.68 300.186 40.4 287.898 40.4C275.802 40.4 266.202 45.68 259.098 56.24C252.186 66.8 248.73 83.12 248.73 105.2C248.73 127.28 252.186 143.6 259.098 154.16C266.202 164.72 275.802 170 287.898 170ZM581.574 163.664H548.742V206H503.238V163.664H394.662V132.272L489.702 4.39999H538.662L450.534 125.648H504.678V87.92H548.742V125.648H581.574V163.664Z" fill="#FF6060"/>
</svg>
